# xmcd
#
# Track frame offsets: 
#        150
#        4350
#        22450
#        24297
#        47240
#        49645
#        72512
#        93725
#        99437
#        119535
#        131567
#        133515
#        156445
#
# Disc length: 2400 seconds
#
# Revision: 9
# Processed by: cddbd v1.5.2PL0 Copyright (c) Steve Scherf et al.
# Submitted via: ExactAudioCopyFreeDBPlugin 1.0
#
DISCID=bb095e0d
DTITLE=劉若英 - 收穫新歌+精選 - Disc 1
DYEAR=2001
DGENRE=Pop
TTITLE0=Action
TTITLE1=收穫
TTITLE2=Airport
TTITLE3=I Believe
TTITLE4=昇哥的話
TTITLE5=為愛痴狂
TTITLE6=很愛很愛你
TTITLE7=光良與奶茶Key
TTITLE8=我等你
TTITLE9=透明
TTITLE10=Home
TTITLE11=打了一把鑰匙給你
TTITLE12=決定
EXTD=
EXTT0=
EXTT1=
EXTT2=
EXTT3=
EXTT4=
EXTT5=
EXTT6=
EXTT7=
EXTT8=
EXTT9=
EXTT10=
EXTT11=
EXTT12=
PLAYORDER=
